<svg width="64" height="20" viewBox="0 0 64 20" fill="none" xmlns="http://www.w3.org/2000/svg">
<path d="M27.7266 19.7128H22.5593L25.7912 0.35114H30.9585L27.7266 19.7128Z" fill="#3D454D"/>
<path d="M46.5121 0.824164C45.0335 0.272535 43.4617 -0.00693015 41.8774 0.00013052C36.7741 0.00013052 33.1808 2.63623 33.1592 6.40536C33.1168 9.18645 35.7325 10.7305 37.6876 11.6575C39.687 12.6046 40.3713 13.2236 40.3713 14.0676C40.3507 15.3677 38.7559 15.9627 37.2685 15.9627C35.5887 16.0085 33.923 15.6548 32.417 14.9326L31.7368 14.6236L31.0142 18.9698C32.8516 19.6599 34.8065 20.0093 36.7771 19.9998C42.1994 19.9998 45.7286 17.3997 45.7709 13.3876C45.7915 11.1875 44.4104 9.49446 41.4356 8.11441C39.6281 7.22838 38.5216 6.63136 38.5216 5.72433C38.5433 4.9003 39.4578 4.05627 41.4986 4.05627C42.8229 4.01872 44.1388 4.27206 45.3477 4.7973L45.8153 5.00331L46.5182 0.822165L46.5121 0.824164Z" fill="#3D454D"/>
<path d="M53.4507 12.8536C53.876 11.7415 55.5151 7.43638 55.5151 7.43638C55.4935 7.47738 55.9394 6.30334 56.1954 5.58232L56.5566 7.25037C56.5566 7.25037 57.5352 11.8845 57.7478 12.8506L53.4507 12.8536ZM55.832 0.353136C55.2607 0.286226 54.6829 0.408513 54.1925 0.700103C53.702 0.991692 53.3278 1.43544 53.1306 1.95919L45.455 19.7138H50.8773L51.9622 16.8137H58.5963C58.745 17.4937 59.2156 19.7138 59.2156 19.7138H64L59.8308 0.353136H55.832Z" fill="#3D454D"/>
<path d="M18.163 0.35114L13.1051 13.5516L12.5519 10.8735C11.2927 7.40316 8.74625 4.51057 5.40782 2.75823L10.0435 19.6898H15.5081L23.6307 0.349141H18.163V0.35114Z" fill="#3D454D"/>
<path d="M8.39612 0.351137H0.0846432L0 0.742149C6.48547 2.3492 10.7806 6.22134 12.5446 10.8765L10.7372 1.97619C10.6266 1.47144 10.3255 1.02486 9.89287 0.723907C9.46022 0.422955 8.9272 0.289306 8.39818 0.349138L8.39612 0.351137Z" fill="#3D454D"/>
</svg>
