<svg width="118" height="20" viewBox="0 0 118 20" fill="none" xmlns="http://www.w3.org/2000/svg">
<path d="M13.06 10.0007C13.0592 8.49154 13.4187 7.00182 14.1115 5.6437C14.8044 4.28558 15.8125 3.09445 17.06 2.15995C15.5089 0.993489 13.6433 0.265839 11.6769 0.0604226C9.71053 -0.144994 7.72301 0.180138 5.94221 0.998542C4.16142 1.81695 2.65943 3.0955 1.60844 4.68762C0.55745 6.27973 0 8.12098 0 10.0002C0 11.8795 0.55745 13.7208 1.60844 15.3129C2.65943 16.905 4.16142 18.1836 5.94221 19.002C7.72301 19.8204 9.71053 20.1455 11.6769 19.9401C13.6433 19.7347 15.5089 19.007 17.06 17.8405C15.8126 16.9062 14.8046 15.7152 14.1118 14.3572C13.4189 12.9993 13.0593 11.5098 13.06 10.0007Z" fill="#3D454D"/>
<path d="M51.3221 7.31482C51.0736 7.07964 50.7775 6.89491 50.4515 6.77183C50.1005 6.64001 49.7258 6.57413 49.3484 6.57784C49.1276 6.57849 48.9073 6.59588 48.6895 6.62983C48.4594 6.66504 48.2346 6.72648 48.02 6.81283C47.7945 6.90455 47.5843 7.02682 47.3958 7.17582C47.1893 7.34052 47.015 7.53855 46.881 7.76081C46.6499 7.3958 46.3203 7.09612 45.9263 6.89283C45.5029 6.67778 45.0285 6.56934 44.5484 6.57784C44.3677 6.57847 44.1875 6.59352 44.0094 6.62283C43.8195 6.65442 43.6341 6.70677 43.4568 6.77883C43.0556 6.94111 42.7144 7.21337 42.4768 7.56081V6.74883H41.0105V13.3787H42.4905V9.70476C42.4858 9.4481 42.5337 9.19303 42.6316 8.95378C42.7163 8.74789 42.8445 8.5607 43.0084 8.40379C43.1657 8.25613 43.354 8.14164 43.561 8.0678C43.7774 7.99091 44.0068 7.95228 44.2379 7.9538C44.454 7.94233 44.67 7.97677 44.8703 8.05461C45.0706 8.13245 45.2501 8.25174 45.3958 8.40379C45.6939 8.77061 45.8407 9.22832 45.8084 9.69076V13.3787H47.2884V9.70476C47.2835 9.44809 47.3314 9.19299 47.4294 8.95378C47.5142 8.74794 47.6425 8.56078 47.8063 8.40379C47.964 8.25615 48.1526 8.14167 48.36 8.0678C48.5764 7.99091 48.8058 7.95228 49.0368 7.9538C49.2529 7.9424 49.4689 7.97687 49.6692 8.05471C49.8695 8.13255 50.049 8.2518 50.1947 8.40379C50.4929 8.77061 50.6396 9.22832 50.6073 9.69076V13.3787H52.0873V9.21377C52.0918 8.8499 52.0235 8.48853 51.8863 8.1488C51.7597 7.83663 51.5665 7.55269 51.3189 7.31482" fill="#3D454D"/>
<path d="M59.1031 7.54881C58.8595 7.25332 58.5514 7.01145 58.2 6.83983C57.7994 6.6537 57.3573 6.56244 56.9116 6.57384C56.4503 6.56937 55.993 6.65413 55.5673 6.82295C55.1417 6.99177 54.7567 7.24112 54.4357 7.55581C54.1144 7.87256 53.8619 8.24633 53.6926 8.65579C53.3341 9.55802 53.3341 10.5535 53.6926 11.4557C53.8618 11.8652 54.1144 12.239 54.4357 12.5557C54.7567 12.8703 55.1417 13.1196 55.5674 13.2885C55.993 13.4573 56.4503 13.5421 56.9116 13.5377C57.357 13.549 57.7988 13.4588 58.2 13.2747C58.552 13.1052 58.8603 12.8642 59.1031 12.5687V13.3687H60.6252V6.74883H59.1031V7.54881ZM59.0452 10.9037C58.9497 11.152 58.8038 11.3799 58.6157 11.5747C58.4291 11.7649 58.2034 11.9167 57.9526 12.0207C57.6758 12.1292 57.3792 12.1844 57.0798 12.1832C56.7803 12.182 56.4842 12.1244 56.2084 12.0137C55.9574 11.907 55.7329 11.7513 55.5494 11.5567C55.3663 11.3599 55.2254 11.1309 55.1347 10.8827C54.9403 10.3493 54.9403 9.76922 55.1347 9.23577C55.2255 8.98761 55.3664 8.75867 55.5494 8.56179C55.7331 8.36741 55.9576 8.21174 56.2084 8.1048C56.4842 7.99403 56.7803 7.93638 57.0798 7.93518C57.3792 7.93398 57.6758 7.98925 57.9526 8.0978C58.2034 8.20179 58.4291 8.35359 58.6157 8.54379C58.8037 8.73861 58.9496 8.96657 59.0452 9.21477C59.2489 9.76079 59.2489 10.3567 59.0452 10.9027" fill="#3D454D"/>
<path d="M67.6052 10.0537C67.076 9.70003 66.4597 9.48201 65.8158 9.42077L65.0947 9.32077C64.9347 9.29743 64.7842 9.27077 64.6431 9.24077C64.5167 9.21566 64.3943 9.17499 64.2789 9.11977C64.1829 9.07384 64.0993 9.00745 64.0347 8.92578C63.9716 8.84088 63.9394 8.73868 63.9432 8.63478C63.9431 8.51911 63.9749 8.40545 64.0357 8.30522C64.0965 8.20499 64.1841 8.12172 64.2895 8.0638C64.5845 7.90295 64.9225 7.8272 65.2621 7.84581C65.4801 7.84345 65.6978 7.86018 65.9126 7.8958C66.1156 7.93061 66.3163 7.97669 66.5136 8.0338C66.6898 8.08466 66.8625 8.14612 67.0305 8.21779C67.1648 8.27447 67.2959 8.3379 67.4231 8.40779L68.0789 7.27982C67.6848 7.04621 67.2547 6.87246 66.8042 6.76483C66.2976 6.63981 65.776 6.57796 65.2526 6.58084C64.8468 6.57578 64.4424 6.62595 64.0515 6.72983C63.7247 6.81627 63.4174 6.95934 63.1452 7.15182C62.9004 7.32812 62.7031 7.55704 62.5694 7.81981C62.4329 8.09691 62.3645 8.39987 62.3694 8.70578C62.3602 8.95146 62.4095 9.19595 62.5136 9.42103C62.6177 9.6461 62.7738 9.84598 62.9705 10.0058C63.4817 10.378 64.0949 10.6026 64.7368 10.6527L65.4652 10.7427C65.7876 10.7688 66.1004 10.8594 66.3831 11.0087C66.4704 11.0556 66.5432 11.1234 66.5943 11.2053C66.6455 11.2873 66.6732 11.3805 66.6747 11.4757C66.6731 11.6002 66.6347 11.7218 66.5638 11.8265C66.4928 11.9311 66.3923 12.0148 66.2737 12.0677C65.9034 12.2337 65.4951 12.3087 65.0863 12.2857C64.829 12.2876 64.5719 12.2688 64.3178 12.2297C64.1076 12.1964 63.9005 12.1465 63.6989 12.0807C63.5249 12.0238 63.3569 11.9518 63.1968 11.8657C63.0537 11.7882 62.9162 11.7016 62.7852 11.6067L62.0789 12.6927C62.3237 12.8683 62.5903 13.0147 62.8726 13.1287C63.1369 13.2357 63.4097 13.3226 63.6884 13.3887C63.9374 13.4481 64.1907 13.4899 64.4463 13.5137C64.6842 13.5343 64.893 13.5447 65.0726 13.5447C65.5262 13.5503 65.9785 13.4968 66.4168 13.3857C66.7753 13.2962 67.1135 13.145 67.4147 12.9397C67.6738 12.7597 67.8856 12.5253 68.0337 12.2547C68.1767 11.9833 68.249 11.6832 68.2442 11.3797C68.2568 11.1262 68.2051 10.8736 68.0935 10.643C67.982 10.4125 67.8138 10.2107 67.6031 10.0547" fill="#3D454D"/>
<path d="M81.8252 7.54281C81.5364 7.2361 81.1808 6.9928 80.7831 6.82983C80.3611 6.65851 79.9062 6.57269 79.4473 6.57784C78.9645 6.57186 78.4854 6.65753 78.0379 6.82983C77.6237 6.99133 77.2502 7.23432 76.9421 7.54281C76.6289 7.86028 76.3862 8.23436 76.2284 8.64278C76.0541 9.09696 75.9678 9.57736 75.9737 10.0607C75.9668 10.5494 76.0557 11.035 76.2357 11.4927C76.3988 11.9038 76.6497 12.2783 76.9726 12.5927C77.2928 12.9002 77.6772 13.1407 78.101 13.2987C78.5605 13.4687 79.0501 13.5533 79.5431 13.5477C80.0551 13.5499 80.5645 13.4798 81.0547 13.3397C81.5553 13.1895 82.0177 12.9423 82.4126 12.6137L81.6557 11.5827C81.3657 11.8033 81.0397 11.9772 80.6905 12.0977C80.3537 12.2171 79.9973 12.279 79.6378 12.2807C79.3961 12.2805 79.1557 12.2468 78.9242 12.1807C78.6999 12.1183 78.49 12.0166 78.3052 11.8807C78.114 11.737 77.9536 11.5598 77.8326 11.3587C77.6926 11.1212 77.6011 10.8606 77.5631 10.5907H82.721C82.7305 10.5077 82.7378 10.4197 82.7431 10.3277C82.7484 10.2357 82.7505 10.1427 82.7505 10.0507C82.7567 9.56916 82.6741 9.09027 82.5063 8.63578C82.357 8.23129 82.1272 7.85786 81.8294 7.53581L81.8252 7.54281ZM77.5652 9.49676C77.6004 9.26844 77.6692 9.04595 77.7694 8.83578C77.861 8.64283 77.9883 8.46705 78.1452 8.31679C78.3007 8.16981 78.4867 8.05536 78.6915 7.9808C78.9231 7.89925 79.1688 7.85957 79.4157 7.8638C79.6339 7.85556 79.8515 7.88932 80.0556 7.96304C80.2596 8.03676 80.4458 8.14893 80.6031 8.29279C80.9302 8.62147 81.1347 9.04302 81.1852 9.49276L77.5652 9.49676Z" fill="#3D454D"/>
<path d="M101.966 7.54881C101.723 7.25332 101.415 7.01145 101.063 6.83983C100.663 6.65377 100.22 6.56252 99.7747 6.57384C99.3135 6.56949 98.8562 6.6543 98.4306 6.82311C98.005 6.99192 97.62 7.24121 97.2989 7.55581C96.9777 7.87262 96.7252 8.24638 96.5558 8.65578C96.1968 9.55794 96.1968 10.5536 96.5558 11.4557C96.7252 11.8651 96.9777 12.2389 97.2989 12.5557C97.62 12.8703 98.005 13.1196 98.4306 13.2884C98.8562 13.4572 99.3135 13.542 99.7747 13.5377C100.22 13.5489 100.662 13.4587 101.063 13.2747C101.415 13.1051 101.723 12.8641 101.966 12.5687V13.3687H103.488V6.74883H101.966V7.54881ZM101.908 10.9037C101.813 11.1519 101.667 11.3798 101.479 11.5747C101.292 11.7649 101.067 11.9167 100.816 12.0207C100.539 12.1292 100.242 12.1844 99.9429 12.1832C99.6435 12.182 99.3473 12.1244 99.0715 12.0137C98.8206 11.9069 98.5961 11.7512 98.4126 11.5567C98.2296 11.3598 98.0887 11.1308 97.9979 10.8827C97.804 10.3492 97.804 9.76931 97.9979 9.23577C98.0889 8.9877 98.2297 8.75879 98.4126 8.56178C98.5963 8.3675 98.8208 8.21184 99.0715 8.1048C99.3473 7.99403 99.6435 7.93638 99.9429 7.93518C100.242 7.93397 100.539 7.98925 100.816 8.0978C101.067 8.20179 101.292 8.35359 101.479 8.54379C101.667 8.73867 101.813 8.96662 101.908 9.21477C102.112 9.76082 102.112 10.3567 101.908 10.9027" fill="#3D454D"/>
<path d="M74.1168 12.0567C73.8857 12.1416 73.6404 12.186 73.3926 12.1877C73.2449 12.189 73.0981 12.1656 72.9589 12.1187C72.826 12.0731 72.7063 11.9984 72.6094 11.9007C72.5028 11.79 72.4221 11.6591 72.3726 11.5167C72.3102 11.3334 72.2806 11.1414 72.2852 10.9487V8.0648H74.7305V6.74983H72.2852V4.74388H70.7547V6.74983H69.3642V8.0638H70.7547V10.9807C70.7236 11.3305 70.7658 11.6827 70.8789 12.0169C70.992 12.3511 71.1738 12.6607 71.4137 12.9277C71.661 13.1451 71.952 13.3126 72.2694 13.4202C72.5867 13.5278 72.9237 13.5732 73.26 13.5537C73.6661 13.5595 74.0697 13.4938 74.4505 13.3597C74.6743 13.2777 74.8916 13.1808 75.101 13.0697L74.58 11.8587C74.4299 11.9348 74.2749 12.0016 74.1158 12.0587" fill="#3D454D"/>
<path d="M87.8263 6.57783C87.4281 6.57205 87.0333 6.64741 86.6684 6.79883C86.3115 6.99884 86.0135 7.28122 85.8021 7.61981V6.74983H84.42V13.3777H85.8168V9.73276C85.8129 9.47656 85.8549 9.22159 85.941 8.97877C86.0148 8.7722 86.1316 8.58179 86.2842 8.41879C86.4294 8.26667 86.6095 8.14829 86.8105 8.0728C87.0235 7.99252 87.2509 7.95244 87.48 7.9548C87.6806 7.95641 87.8806 7.97718 88.0768 8.0168C88.1806 8.03651 88.2829 8.06256 88.3831 8.0948L88.8326 6.71083C88.7106 6.67316 88.5861 6.64342 88.4599 6.62184C88.2511 6.59022 88.0399 6.57517 87.8284 6.57683" fill="#3D454D"/>
<path d="M108.922 6.57784C108.524 6.57215 108.129 6.6475 107.764 6.79883C107.407 6.99884 107.109 7.28123 106.898 7.61981V6.74983H105.516V13.3777H106.912V9.73276C106.907 9.47653 106.949 9.22152 107.036 8.97877C107.109 8.77224 107.226 8.58181 107.378 8.41879C107.523 8.26678 107.703 8.14842 107.904 8.0728C108.117 7.99249 108.345 7.95241 108.574 7.9548C108.775 7.9564 108.975 7.97717 109.172 8.0168C109.275 8.03651 109.377 8.06256 109.477 8.0948L109.926 6.71083C109.804 6.67314 109.68 6.64341 109.554 6.62184C109.345 6.59021 109.134 6.57616 108.922 6.57784Z" fill="#3D454D"/>
<path d="M116.023 4.0569V7.55681C115.779 7.26132 115.471 7.01945 115.12 6.84783C114.719 6.66161 114.277 6.57035 113.83 6.58184C113.369 6.57743 112.912 6.66221 112.486 6.83103C112.061 6.99985 111.676 7.24916 111.355 7.56381C111.033 7.88034 110.781 8.25417 110.612 8.66378C110.252 9.56592 110.252 10.5616 110.612 11.4637C110.781 11.8733 111.033 12.2471 111.355 12.5637C111.676 12.8783 112.061 13.1276 112.486 13.2964C112.912 13.4652 113.369 13.55 113.83 13.5457C114.276 13.5571 114.718 13.4669 115.12 13.2827C115.472 13.1131 115.78 12.8721 116.023 12.5767V13.3767H117.545V4.0569H116.023ZM115.964 10.9087C115.869 11.157 115.723 11.385 115.535 11.5797C115.348 11.7702 115.123 11.922 114.872 12.0257C114.595 12.1342 114.298 12.1894 113.999 12.1882C113.699 12.187 113.403 12.1294 113.127 12.0187C112.877 11.9117 112.652 11.7561 112.468 11.5617C112.285 11.3648 112.145 11.1358 112.054 10.8877C111.859 10.3543 111.859 9.77419 112.054 9.24077C112.145 8.99271 112.285 8.76381 112.468 8.56679C112.652 8.37263 112.877 8.21699 113.127 8.1098C113.403 7.99903 113.699 7.94138 113.999 7.94017C114.298 7.93897 114.595 7.99425 114.872 8.1028C115.123 8.20661 115.348 8.35843 115.535 8.54879C115.723 8.74349 115.869 8.97149 115.964 9.21977C116.168 9.76573 116.168 10.3628 115.964 10.9087Z" fill="#3D454D"/>
<path d="M91.4568 8.53179C91.6535 8.34306 91.8889 8.19467 92.1484 8.0958C92.4236 7.99042 92.718 7.93742 93.0147 7.9398C93.3399 7.93723 93.6629 7.99006 93.9684 8.0958C94.2396 8.18965 94.4896 8.33148 94.7052 8.51379L95.4421 7.35581C95.1606 7.14316 94.8483 6.97037 94.5147 6.84283C93.5519 6.4875 92.4839 6.4875 91.521 6.84283C91.0786 7.01043 90.6754 7.25953 90.3347 7.57581C89.9998 7.8898 89.7336 8.26364 89.5515 8.67578C89.1727 9.563 89.1727 10.5555 89.5515 11.4427C89.7335 11.8549 89.9997 12.2288 90.3347 12.5427C90.6754 12.8592 91.0785 13.1087 91.521 13.2767C92.484 13.6315 93.5518 13.6315 94.5147 13.2767C94.8483 13.1491 95.1606 12.9763 95.4421 12.7637L94.7052 11.6057C94.4895 11.7879 94.2396 11.9297 93.9684 12.0237C93.6629 12.1296 93.3399 12.1824 93.0147 12.1797C92.718 12.1822 92.4236 12.1292 92.1484 12.0237C91.8888 11.925 91.6534 11.7765 91.4568 11.5877C91.2587 11.395 91.1027 11.167 90.9979 10.9167C90.7744 10.362 90.7744 9.74847 90.9979 9.19377C91.1028 8.94357 91.2588 8.71554 91.4568 8.52279" fill="#3D454D"/>
<path d="M23.5873 5.40518e-06C21.2175 -0.00234012 18.9168 0.758741 17.061 2.15895C18.3069 3.09448 19.3137 4.28583 20.0058 5.64367C20.698 7.0015 21.0575 8.49059 21.0575 9.99925C21.0575 11.5079 20.698 12.997 20.0058 14.3548C19.3137 15.7127 18.3069 16.904 17.061 17.8396C18.3781 18.8302 19.9256 19.507 21.5742 19.8134C23.2229 20.1199 24.9248 20.047 26.5378 19.6009C28.1507 19.1548 29.6278 18.3484 30.8457 17.2492C32.0636 16.15 32.9868 14.7898 33.5383 13.2824C34.0898 11.775 34.2535 10.164 34.0157 8.58423C33.7779 7.00443 33.1455 5.50163 32.1714 4.20143C31.1973 2.90123 29.9098 1.84139 28.4164 1.11047C26.9231 0.379552 25.2672 -0.00120819 23.5873 5.40518e-06Z" fill="#3D454D"/>
</svg>
