<svg width="88" height="20" viewBox="0 0 88 20" fill="none" xmlns="http://www.w3.org/2000/svg">
<path d="M67.7693 4.47243H62.9304C62.5996 4.47243 62.318 4.69793 62.2665 5.00411L60.3097 16.6263C60.2712 16.8557 60.4601 17.0631 60.7081 17.0631H63.1909C63.4223 17.0631 63.6198 16.9054 63.6556 16.6909L64.2106 13.3961C64.2622 13.09 64.5438 12.8644 64.8748 12.8644H66.406C69.593 12.8644 71.4323 11.4195 71.9132 8.55599C72.1296 7.30358 71.9219 6.31946 71.2958 5.63052C70.6077 4.87292 69.3881 4.47243 67.7693 4.47243ZM68.3278 8.71712C68.0633 10.3442 66.737 10.3442 65.4537 10.3442H64.7239L65.2358 7.30643C65.2669 7.12269 65.4358 6.98742 65.6342 6.98742H65.9689C66.8422 6.98742 67.6673 6.98742 68.0925 7.45351C68.3471 7.73259 68.4239 8.14592 68.3278 8.71712Z" fill="#3D454D"/>
<path d="M33.2578 4.47243H28.4191C28.0883 4.47243 27.8067 4.69793 27.7549 5.00411L25.7982 16.6263C25.7597 16.8557 25.9489 17.0631 26.1968 17.0631H28.5072C28.8379 17.0631 29.1196 16.8378 29.1713 16.5316L29.6993 13.3961C29.7509 13.09 30.0325 12.8644 30.3633 12.8644H31.8945C35.0817 12.8644 36.9211 11.4195 37.4019 8.55599C37.6183 7.30358 37.4106 6.31946 36.7847 5.63052C36.0962 4.87292 34.8764 4.47243 33.2578 4.47243ZM33.8163 8.71712C33.5518 10.3442 32.2253 10.3442 30.9424 10.3442H30.2124L30.7243 7.30643C30.7554 7.12269 30.9241 6.98742 31.1227 6.98742H31.4574C32.3307 6.98742 33.1558 6.98742 33.581 7.45351C33.8354 7.73259 33.9124 8.14592 33.8163 8.71712Z" fill="#3D454D"/>
<path d="M47.7201 8.66518H45.4035C45.2049 8.66518 45.0359 8.80044 45.0048 8.98419L44.9031 9.59104L44.741 9.37123C44.2391 8.68901 43.1209 8.46106 42.0042 8.46106C39.4446 8.46106 37.2577 10.2781 36.8321 12.8266C36.6105 14.0979 36.925 15.313 37.6946 16.1611C38.4016 16.9403 39.4107 17.2646 40.6128 17.2646C42.676 17.2646 43.8205 16.0228 43.8205 16.0228L43.717 16.6261C43.678 16.8555 43.8672 17.0631 44.1154 17.0631H46.202C46.5328 17.0631 46.8142 16.8378 46.8659 16.5318L48.1186 9.10193C48.1573 8.87235 47.9681 8.66518 47.7201 8.66518ZM44.4912 12.8897C44.2674 14.1297 43.2164 14.9622 41.8759 14.9622C41.2039 14.9622 40.6659 14.7598 40.3201 14.3764C39.9774 13.9965 39.8484 13.455 39.9571 12.852C40.1657 11.623 41.2337 10.7636 42.5537 10.7636C43.2116 10.7636 43.7459 10.9679 44.0984 11.355C44.4533 11.7447 44.5927 12.2896 44.4912 12.8897Z" fill="#3D454D"/>
<path d="M82.2317 8.66518H79.9149C79.7164 8.66518 79.5474 8.80044 79.5165 8.98419L79.4145 9.59104L79.2525 9.37123C78.7506 8.68901 77.6324 8.46106 76.5157 8.46106C73.9558 8.46106 71.7692 10.2781 71.3438 12.8266C71.1222 14.0979 71.4367 15.313 72.2063 16.1611C72.9133 16.9403 73.9224 17.2646 75.1245 17.2646C77.1877 17.2646 78.3322 16.0228 78.3322 16.0228L78.2287 16.6261C78.1898 16.8555 78.379 17.0631 78.6271 17.0631H80.7137C81.0445 17.0631 81.3259 16.8378 81.3776 16.5318L82.6303 9.10193C82.669 8.87235 82.4796 8.66518 82.2317 8.66518ZM79.0029 12.8897C78.7791 14.1297 77.7283 14.9622 76.3878 14.9622C75.7156 14.9622 75.1778 14.7598 74.8318 14.3764C74.4893 13.9965 74.3601 13.455 74.4689 12.852C74.6776 11.623 75.7452 10.7636 77.0652 10.7636C77.7231 10.7636 78.2574 10.9679 78.6101 11.355C78.9648 11.7447 79.1042 12.2896 79.0029 12.8897Z" fill="#3D454D"/>
<path d="M60.0607 8.66518H57.7318C57.5091 8.66518 57.3008 8.76886 57.1755 8.94141L53.963 13.3733L52.6015 9.11436C52.5162 8.8479 52.2544 8.66497 51.9575 8.66497H49.6682C49.3918 8.66497 49.1974 8.91961 49.2864 9.16488L51.8508 16.2157L49.4388 19.4033C49.2494 19.6537 49.4405 19.9998 49.7681 19.9998H52.0945C52.3151 19.9998 52.5214 19.8985 52.6471 19.7286L60.3921 9.25817C60.5774 9.00782 60.386 8.66518 60.0607 8.66518Z" fill="#3D454D"/>
<path d="M84.9628 4.79164L82.9767 16.6266C82.9382 16.8557 83.1274 17.0631 83.3751 17.0631H85.3726C85.7033 17.0631 85.9849 16.8378 86.0367 16.5316L87.9948 4.90938C88.0335 4.68001 87.8443 4.47263 87.5964 4.47263H85.3615C85.1627 4.47243 84.9937 4.60789 84.9628 4.79164Z" fill="#3D454D"/>
<path d="M6.801 5.10191C6.84471 4.84197 7.02304 4.62889 7.2629 4.52133C7.37186 4.47244 7.49386 4.44515 7.62151 4.44515H12.8232C13.4395 4.44515 14.014 4.48304 14.5392 4.56228C14.6893 4.58489 14.8354 4.61097 14.9774 4.6405C15.1192 4.67004 15.2571 4.70284 15.3904 4.73951C15.4571 4.75764 15.5226 4.77699 15.5872 4.79695C15.8451 4.87721 16.0854 4.97173 16.3064 5.08153C16.5669 3.5256 16.3046 2.46713 15.4063 1.50806C14.4168 0.452235 12.63 0 10.344 0H3.70815C3.24103 0 2.84306 0.318398 2.77043 0.750873L0.00704409 17.1642C-0.0473232 17.4881 0.219946 17.7808 0.569637 17.7808H4.66632L6.801 5.10191Z" fill="#3D454D"/>
</svg>
