<svg width="92" height="12" viewBox="0 0 92 12" fill="none" xmlns="http://www.w3.org/2000/svg">
<path d="M5.10352 9.98438C4.45898 9.98438 3.84766 9.86328 3.26953 9.62109C2.69531 9.38281 2.20312 9.05859 1.79297 8.64844C1.38281 8.23438 1.05664 7.74023 0.814453 7.16602C0.576172 6.5918 0.457031 5.98047 0.457031 5.33203C0.457031 4.46484 0.660156 3.67578 1.06641 2.96484C1.47266 2.25391 2.03125 1.69531 2.74219 1.28906C3.45312 0.882813 4.24023 0.679688 5.10352 0.679688C5.75195 0.679688 6.36328 0.798828 6.9375 1.03711C7.51562 1.27539 8.00977 1.60156 8.41992 2.01562C8.83008 2.42578 9.1543 2.91992 9.39258 3.49805C9.63086 4.07227 9.75 4.68359 9.75 5.33203C9.75 6.19922 9.54688 6.98828 9.14062 7.69922C8.73438 8.41016 8.17578 8.96875 7.46484 9.375C6.75391 9.78125 5.9668 9.98438 5.10352 9.98438ZM5.10352 9.16406C5.63867 9.16406 6.14258 9.06641 6.61523 8.87109C7.08789 8.67188 7.49219 8.4043 7.82812 8.06836C8.16797 7.72852 8.43555 7.32227 8.63086 6.84961C8.82617 6.37305 8.92383 5.86719 8.92383 5.33203C8.92383 4.61719 8.75781 3.9668 8.42578 3.38086C8.09375 2.79492 7.63477 2.33594 7.04883 2.00391C6.4668 1.66797 5.81836 1.5 5.10352 1.5C4.56836 1.5 4.06445 1.59961 3.5918 1.79883C3.11914 1.99414 2.71289 2.26172 2.37305 2.60156C2.03711 2.9375 1.77148 3.34375 1.57617 3.82031C1.38086 4.29297 1.2832 4.79688 1.2832 5.33203C1.2832 5.86719 1.38086 6.37109 1.57617 6.84375C1.77539 7.31641 2.04297 7.72266 2.37891 8.0625C2.71875 8.40234 3.125 8.67188 3.59766 8.87109C4.07031 9.06641 4.57227 9.16406 5.10352 9.16406ZM7.31836 4.5H6.50391C6.43359 4.22266 6.2793 4.00195 6.04102 3.83789C5.80664 3.66992 5.52734 3.58594 5.20312 3.58594C4.75 3.58594 4.38867 3.74219 4.11914 4.05469C3.85352 4.36719 3.7207 4.78906 3.7207 5.32031C3.7207 5.85938 3.85352 6.28711 4.11914 6.60352C4.38867 6.91992 4.75 7.07812 5.20312 7.07812C5.54688 7.07812 5.83203 7.00195 6.05859 6.84961C6.28516 6.69336 6.43359 6.47461 6.50391 6.19336H7.31836C7.24414 6.68555 7.01562 7.07812 6.63281 7.37109C6.25391 7.66016 5.7793 7.80469 5.20898 7.80469C4.50195 7.80469 3.9375 7.58008 3.51562 7.13086C3.09766 6.68164 2.88867 6.07812 2.88867 5.32031C2.88867 4.57031 3.09766 3.97266 3.51562 3.52734C3.93359 3.08203 4.49609 2.85938 5.20312 2.85938C5.76172 2.85938 6.23438 3.00977 6.62109 3.31055C7.00781 3.61133 7.24023 4.00781 7.31836 4.5ZM15.7266 9H14.6719V0.544922H15.7266V4.65234H15.8203L19.5234 0.544922H20.8477L17.4668 4.19531L21.1582 9H19.793L16.7402 4.92773L15.7266 6.04688V9ZM22.4531 9V2.68359H23.4141V3.62109H23.5078C23.6016 3.3125 23.8125 3.06055 24.1406 2.86523C24.4688 2.66992 24.8418 2.57227 25.2598 2.57227C25.4512 2.57227 25.6191 2.58203 25.7637 2.60156V3.60938C25.627 3.57031 25.4121 3.55078 25.1191 3.55078C24.6387 3.55078 24.2422 3.69531 23.9297 3.98438C23.6172 4.27344 23.4609 4.64062 23.4609 5.08594V9H22.4531ZM32.1328 2.68359V9H31.1719V8.00977H31.0781C30.918 8.36523 30.6719 8.63867 30.3398 8.83008C30.0078 9.01758 29.6016 9.11133 29.1211 9.11133C28.418 9.11133 27.8828 8.91016 27.5156 8.50781C27.1484 8.10547 26.9648 7.52734 26.9648 6.77344V2.68359H27.9727V6.52734C27.9727 7.10156 28.0859 7.52344 28.3125 7.79297C28.5391 8.05859 28.9023 8.19141 29.4023 8.19141C29.9531 8.19141 30.377 8.03711 30.6738 7.72852C30.9746 7.41602 31.125 6.98047 31.125 6.42188V2.68359H32.1328ZM33.8848 4.41211C33.8848 3.88867 34.1094 3.45117 34.5586 3.09961C35.0078 2.74805 35.5684 2.57227 36.2402 2.57227C36.9004 2.57227 37.4453 2.72461 37.875 3.0293C38.3047 3.33398 38.5527 3.74609 38.6191 4.26562H37.623C37.5527 4.00781 37.3965 3.80469 37.1543 3.65625C36.916 3.50391 36.6094 3.42773 36.2344 3.42773C35.8555 3.42773 35.5371 3.51562 35.2793 3.69141C35.0254 3.86719 34.8984 4.09375 34.8984 4.37109C34.8984 4.58594 34.9863 4.76562 35.1621 4.91016C35.3418 5.05078 35.6191 5.16602 35.9941 5.25586L36.9668 5.49023C37.5684 5.63477 38.0117 5.84375 38.2969 6.11719C38.5859 6.39062 38.7305 6.75195 38.7305 7.20117C38.7305 7.75977 38.4902 8.21875 38.0098 8.57812C37.5293 8.93359 36.9258 9.11133 36.1992 9.11133C35.4961 9.11133 34.9199 8.95508 34.4707 8.64258C34.0215 8.33008 33.7695 7.91211 33.7148 7.38867H34.752C34.8379 7.66211 35.0078 7.87695 35.2617 8.0332C35.5156 8.18555 35.8398 8.26172 36.2344 8.26172C36.6602 8.26172 37.0098 8.16992 37.2832 7.98633C37.5566 7.80273 37.6934 7.56641 37.6934 7.27734C37.6934 6.84766 37.3594 6.55078 36.6914 6.38672L35.6074 6.12305C35.0098 5.97852 34.5723 5.77148 34.2949 5.50195C34.0215 5.22852 33.8848 4.86523 33.8848 4.41211ZM40.3711 9V0.175781H41.3789V3.67969H41.4727C41.6328 3.32422 41.877 3.05078 42.2051 2.85938C42.5371 2.66797 42.9414 2.57227 43.418 2.57227C44.0898 2.57227 44.6211 2.7793 45.0117 3.19336C45.4023 3.60352 45.5977 4.17578 45.5977 4.91016V9H44.5898V5.15625C44.5898 4.03906 44.1035 3.48047 43.1309 3.48047C42.5762 3.48047 42.1445 3.64258 41.8359 3.9668C41.5312 4.28711 41.3789 4.71875 41.3789 5.26172V9H40.3711ZM49.957 3.46289C49.4531 3.46289 49.0391 3.63281 48.7148 3.97266C48.3906 4.3125 48.209 4.76172 48.1699 5.32031H51.6504C51.6387 4.76172 51.4785 4.3125 51.1699 3.97266C50.8613 3.63281 50.457 3.46289 49.957 3.46289ZM51.6211 7.36523H52.6289C52.4766 7.91211 52.166 8.33984 51.6973 8.64844C51.2324 8.95703 50.6562 9.11133 49.9688 9.11133C49.0938 9.11133 48.4004 8.81836 47.8887 8.23242C47.377 7.64258 47.1211 6.84766 47.1211 5.84766C47.1211 4.85156 47.3789 4.05664 47.8945 3.46289C48.4102 2.86914 49.1016 2.57227 49.9688 2.57227C50.8203 2.57227 51.4902 2.85547 51.9785 3.42188C52.4668 3.98828 52.7109 4.76367 52.7109 5.74805V6.13477H48.1699V6.18164C48.1973 6.80664 48.373 7.30273 48.6973 7.66992C49.0254 8.03711 49.457 8.2207 49.9922 8.2207C50.8086 8.2207 51.3516 7.93555 51.6211 7.36523ZM54.293 9V2.68359H55.2539V3.62109H55.3477C55.4414 3.3125 55.6523 3.06055 55.9805 2.86523C56.3086 2.66992 56.6816 2.57227 57.0996 2.57227C57.291 2.57227 57.459 2.58203 57.6035 2.60156V3.60938C57.4668 3.57031 57.252 3.55078 56.959 3.55078C56.4785 3.55078 56.082 3.69531 55.7695 3.98438C55.457 4.27344 55.3008 4.64062 55.3008 5.08594V9H54.293ZM58.8223 11.1504H57.9434L58.5059 7.81641H59.6895L58.8223 11.1504ZM64.9922 2.92383C64.9922 2.17383 65.2461 1.55664 65.7539 1.07227C66.2656 0.587891 66.9141 0.345703 67.6992 0.345703C68.457 0.345703 69.0918 0.574219 69.6035 1.03125C70.1191 1.48438 70.377 2.04688 70.377 2.71875C70.377 3.16016 70.252 3.59375 70.002 4.01953C69.752 4.44531 69.2812 5.0293 68.5898 5.77148L66.5566 7.95703V8.05078H70.5176V9H65.0449V8.27344L67.9688 5.08008C68.5117 4.49023 68.873 4.04102 69.0527 3.73242C69.2324 3.42383 69.3223 3.09961 69.3223 2.75977C69.3223 2.33789 69.1621 1.98438 68.8418 1.69922C68.5254 1.41016 68.1348 1.26562 67.6699 1.26562C67.1738 1.26562 66.7734 1.41797 66.4688 1.72266C66.1641 2.02734 66.0117 2.42773 66.0117 2.92383V2.92969H64.9922V2.92383ZM75.1406 9.19922C74.1875 9.19922 73.4492 8.8125 72.9258 8.03906C72.4023 7.26562 72.1406 6.17578 72.1406 4.76953C72.1406 3.375 72.4043 2.28906 72.9316 1.51172C73.459 0.734375 74.1953 0.345703 75.1406 0.345703C76.082 0.345703 76.8145 0.736328 77.3379 1.51758C77.8652 2.29883 78.1289 3.38867 78.1289 4.78711C78.1289 6.18945 77.8672 7.27539 77.3438 8.04492C76.8242 8.81445 76.0898 9.19922 75.1406 9.19922ZM73.6992 7.37109C74.0352 7.97656 74.5156 8.2793 75.1406 8.2793C75.7656 8.2793 76.2422 7.97852 76.5703 7.37695C76.9023 6.77148 77.0684 5.90234 77.0684 4.76953C77.0684 3.64844 76.9004 2.78516 76.5645 2.17969C76.2324 1.57422 75.7578 1.27148 75.1406 1.27148C74.5234 1.27148 74.0449 1.57617 73.7051 2.18555C73.3691 2.79102 73.2012 3.65234 73.2012 4.76953C73.2012 5.89844 73.3672 6.76562 73.6992 7.37109ZM81.8789 9V1.7168H81.7852L79.6348 3.27539V2.16211L81.8848 0.544922H82.9336V9H81.8789ZM88.1602 9.19336C87.4414 9.19336 86.832 8.99609 86.332 8.60156C85.8359 8.20312 85.5215 7.66406 85.3887 6.98438H86.4727C86.5859 7.37891 86.793 7.68945 87.0938 7.91602C87.3984 8.14258 87.7578 8.25586 88.1719 8.25586C88.8594 8.25586 89.3926 7.95898 89.7715 7.36523C90.1543 6.77148 90.3594 5.91211 90.3867 4.78711H90.3398H90.3164H90.293C90.0859 5.19727 89.7852 5.51758 89.3906 5.74805C88.9961 5.97461 88.5469 6.08789 88.043 6.08789C87.2383 6.08789 86.5742 5.82227 86.0508 5.29102C85.5273 4.75586 85.2656 4.07812 85.2656 3.25781C85.2656 2.40625 85.543 1.70898 86.0977 1.16602C86.6523 0.619141 87.3633 0.345703 88.2305 0.345703C88.8633 0.345703 89.418 0.509766 89.8945 0.837891C90.3711 1.16602 90.7402 1.64258 91.002 2.26758C91.2754 2.9082 91.4121 3.69336 91.4121 4.62305C91.4121 6.07617 91.1289 7.20117 90.5625 7.99805C89.9961 8.79492 89.1953 9.19336 88.1602 9.19336ZM86.8594 4.63477C87.2148 4.99414 87.6719 5.17383 88.2305 5.17383C88.7891 5.17383 89.248 4.99414 89.6074 4.63477C89.9707 4.27539 90.1523 3.81641 90.1523 3.25781C90.1523 2.69141 89.9688 2.21875 89.6016 1.83984C89.2383 1.46094 88.7852 1.27148 88.2422 1.27148C87.6992 1.27148 87.2441 1.45898 86.877 1.83398C86.5137 2.20508 86.332 2.66797 86.332 3.22266C86.332 3.80078 86.5078 4.27148 86.8594 4.63477Z" fill="white"/>
</svg>
