<svg width="21" height="20" viewBox="0 0 21 20" fill="none" xmlns="http://www.w3.org/2000/svg">
<path d="M10 20C8.68626 20.0036 7.38486 19.7465 6.17113 19.2438C4.9574 18.741 3.85545 18.0024 2.92909 17.0709C1.99761 16.1445 1.25912 15.0425 0.756352 13.8288C0.253581 12.6151 -0.00348392 11.3137 3.71649e-05 10C-0.00355632 8.68626 0.253476 7.38486 0.756252 6.17113C1.25903 4.95741 1.99755 3.85546 2.92909 2.92909C3.85545 1.99756 4.9574 1.25902 6.17113 0.756249C7.38486 0.253474 8.68626 -0.00355632 10 3.71652e-05C11.8923 -0.00213752 13.7461 0.534246 15.3448 1.54651C14.9705 1.83955 14.6689 2.58689 14.3365 4.04486H14.2985C14.0568 3.32098 13.5883 2.6942 12.9625 2.25733C12.3367 1.82046 11.5869 1.59673 10.824 1.61928C8.90454 1.61928 7.1011 2.66031 5.74474 4.55096C4.38862 6.53595 3.67195 8.88818 3.69086 11.2921C3.60156 13.0626 4.07899 14.8154 5.05378 16.296C5.45103 16.8487 5.97613 17.2969 6.58426 17.6025C7.19239 17.9081 7.86546 18.062 8.54597 18.051C10.6805 18.051 12.3259 16.5058 13.4384 13.4574H13.5125C13.4445 14.6419 13.6844 15.8238 14.2087 16.888C14.3783 17.2103 14.6261 17.4847 14.9294 17.6862C15.2328 17.8877 15.5818 18.0098 15.9446 18.0411C14.2264 19.3186 12.141 20.0057 10 20ZM16.8388 16.1833C16.0377 16.1833 15.6805 14.8931 15.6805 12.0001C15.6404 9.91952 15.8283 7.84079 16.241 5.80112C16.7231 5.00014 17.0409 4.11117 17.1758 3.18608C17.1758 3.13363 17.1758 3.07922 17.1679 3.02546C18.9896 4.88909 20.007 7.39328 20.0013 9.99934C20.0047 11.9899 19.4109 13.9358 18.2968 15.5854C17.8857 15.9329 17.3756 16.1421 16.8388 16.1833ZM8.8462 15.9958C7.13715 15.9958 6.30655 14.3956 6.30655 11.1033C6.2517 9.15789 6.74511 7.23625 7.73043 5.5579C8.57939 4.24088 9.72073 3.48501 10.8627 3.48501C12.1922 3.48501 13.2798 4.37396 13.9249 5.9873C13.7328 6.98769 13.5105 8.9216 13.4397 9.98296C12.9972 11.652 12.2623 13.2295 11.2692 14.642C11.0003 15.0424 10.6407 15.3736 10.2197 15.6088C9.79867 15.8441 9.32809 15.9766 8.8462 15.9958Z" fill="white"/>
</svg>
