<svg width="52" height="32" viewBox="0 0 52 32" fill="none" xmlns="http://www.w3.org/2000/svg">
<path fill-rule="evenodd" clip-rule="evenodd" d="M46.7657 27.1629C46.7862 27.1396 46.8066 27.1163 46.8271 27.093C46.71 26.9843 46.5928 26.8757 46.4689 26.7608C46.5737 26.9027 46.6697 27.0329 46.7657 27.1629ZM37.2198 12.374C37.2277 12.3838 37.2355 12.3938 37.2434 12.4038C36.9495 12.7204 36.6556 13.0371 36.3617 13.3538C36.3568 13.3486 36.352 13.3436 36.3471 13.3384C36.6381 13.0169 36.929 12.6954 37.2198 12.374ZM47.1703 31.73C47.1734 31.7174 47.1763 31.7048 47.1794 31.6921C46.3789 31.6921 45.5782 31.6921 44.7777 31.6921C44.7778 31.7048 44.7778 31.7174 44.7779 31.73C45.5753 31.73 46.3728 31.73 47.1703 31.73ZM43.604 6.25569C43.62 6.2698 43.6362 6.28391 43.6522 6.29802C43.1982 6.76062 42.7441 7.22325 42.29 7.68577C42.2759 7.67155 42.2616 7.65735 42.2474 7.64308C42.6996 7.18065 43.1518 6.71812 43.604 6.25569ZM50.501 31.2322C50.6149 31.3575 50.7286 31.4829 50.8425 31.6082C50.547 31.6324 50.2518 31.6677 49.9558 31.6786C49.3024 31.7027 48.6484 31.7144 47.9947 31.7311C48.6458 31.8009 49.2949 31.808 49.9437 31.7982C50.308 31.7926 50.6716 31.7593 51.0355 31.7384C51.0436 31.7431 51.0518 31.7478 51.0599 31.7525C51.0507 31.749 51.0413 31.7455 51.032 31.7421C50.9875 31.6982 50.9427 31.6544 50.8981 31.6106C50.7865 31.4674 50.6748 31.3243 50.5632 31.1811C50.3041 30.8993 50.0449 30.6175 49.7857 30.3357C49.2881 29.7913 48.7904 29.247 48.2929 28.7025C48.2666 28.728 48.2404 28.7535 48.2141 28.7791C48.717 29.3147 49.2197 29.8504 49.7227 30.3861C49.9822 30.6681 50.2416 30.9502 50.501 31.2322ZM37.1153 17.1057C37.1573 17.1507 37.1991 17.1956 37.241 17.2406C37.264 17.3552 37.2488 17.504 37.3159 17.5791C37.9293 18.2637 38.5561 18.9363 39.1825 19.6092C39.2232 19.6528 39.292 19.67 39.3477 19.6995C39.3248 19.542 39.2631 19.4311 39.1797 19.3401C38.8299 18.9588 38.471 18.5857 38.1206 18.205C37.8257 17.8848 37.5378 17.558 37.2468 17.2341C37.2028 17.1913 37.1593 17.1483 37.1153 17.1057C36.9635 16.9323 36.8112 16.7594 36.6592 16.586C36.4281 16.3072 36.1969 16.0284 35.9658 15.7495C35.9355 15.7779 35.9052 15.8063 35.8749 15.8347C36.1369 16.0846 36.3989 16.3347 36.6609 16.5847C36.6029 16.9142 36.6938 17.0183 37.1153 17.1057ZM48.1445 28.675C48.1705 28.6828 48.1964 28.6906 48.2224 28.6984C48.21 28.6675 48.1976 28.6367 48.1853 28.6059C47.982 28.3766 47.7787 28.1474 47.5753 27.9181C47.5502 27.9424 47.5251 27.9665 47.4999 27.9908C47.7148 28.2189 47.9297 28.4471 48.1445 28.675ZM46.9768 27.2729C46.9293 27.2329 46.8819 27.1929 46.8345 27.1528C46.8214 27.1654 46.8082 27.1781 46.795 27.1908C46.8374 27.2378 46.8796 27.2848 46.9219 27.3318C47.0918 27.5205 47.2617 27.7094 47.4315 27.898C47.4575 27.9044 47.4833 27.9107 47.5093 27.9171C47.4968 27.8858 47.4844 27.8544 47.4719 27.823C47.3069 27.6396 47.1419 27.4563 46.9768 27.2729ZM45.4505 25.6823C45.2759 25.4755 45.1013 25.2688 44.9267 25.0618C44.8931 25.0936 44.8594 25.1254 44.8256 25.1571C45.0284 25.3371 45.2309 25.5172 45.4335 25.6972C45.5766 25.8742 45.7197 26.051 45.8627 26.228C45.8996 26.1916 45.9364 26.1551 45.9731 26.1187C45.799 25.9732 45.6248 25.8277 45.4505 25.6823ZM37.7005 11.9683C37.7574 11.9339 37.8144 11.8995 37.8713 11.8651C37.8533 11.8451 37.8354 11.825 37.8175 11.8049C37.7778 11.8587 37.7381 11.9124 37.6985 11.9662C37.6902 11.9712 37.6814 11.9757 37.6735 11.9815C37.6656 11.9872 37.6587 11.9944 37.6514 12.0009C37.6678 11.99 37.6841 11.9791 37.7005 11.9683ZM37.5047 12.161C37.4876 12.1736 37.4706 12.1861 37.4535 12.1988C37.4712 12.1868 37.4889 12.1749 37.5066 12.163L37.5199 12.1487L37.5047 12.161ZM29.2467 7.74168C29.2248 7.76326 29.203 7.78485 29.1812 7.80644C29.1596 7.82808 29.1378 7.8497 29.1161 7.87137C29.0945 7.89304 29.0729 7.91482 29.0512 7.93649C28.9894 7.97333 28.9277 8.01006 28.866 8.0469C28.8802 8.06501 28.8943 8.08315 28.9085 8.10136C28.9552 8.04555 29.002 7.98983 29.0487 7.93409C29.0704 7.91242 29.0921 7.89072 29.1138 7.86916C29.1355 7.84736 29.1571 7.82572 29.1788 7.80402C29.2004 7.78224 29.2219 7.76048 29.2435 7.73871C29.2519 7.73496 29.2615 7.73267 29.2683 7.7268C29.272 7.72354 29.2708 7.71462 29.2718 7.7082C29.2634 7.7194 29.255 7.73055 29.2467 7.74168ZM48.1042 2.0125C48.0825 2.03409 48.0607 2.05567 48.0389 2.07726C48.0172 2.09886 47.9953 2.12045 47.9736 2.14203C47.9521 2.16384 47.9305 2.18564 47.9089 2.20745C47.8647 2.25022 47.8206 2.29301 47.7764 2.33581C47.4775 2.59419 47.1786 2.8526 46.8797 3.11101C46.9 3.13263 46.9202 3.15424 46.9404 3.17588C47.2223 2.89874 47.5041 2.6216 47.7859 2.34438C47.8289 2.30082 47.872 2.25726 47.9151 2.21365C47.9369 2.19206 47.9587 2.1705 47.9804 2.14886C48.0022 2.12721 48.0238 2.10557 48.0454 2.08384C48.0671 2.06212 48.0888 2.04039 48.1104 2.01862C48.1196 2.00709 48.1289 1.99556 48.1381 1.98403C48.1268 1.99352 48.1156 2.00304 48.1042 2.0125ZM39.9501 31.9459C39.9058 31.9302 39.8614 31.9145 39.8171 31.8989C39.819 31.8639 39.8209 31.8289 39.8228 31.7939C41.1391 31.7939 42.4555 31.7939 43.7718 31.7939C43.7718 31.7541 43.7718 31.7142 43.7717 31.6743C43.6359 31.6743 43.5002 31.6743 43.3642 31.6743C43.2572 31.665 43.1503 31.6491 43.0432 31.6475C41.8224 31.6286 40.6015 31.6118 39.3808 31.5945C39.5714 31.5766 39.7619 31.5432 39.9525 31.5432C43.3597 31.5416 46.7668 31.5445 50.174 31.5433C50.2631 31.5433 50.3523 31.5085 50.4415 31.4899C50.3578 31.4209 50.2743 31.3521 50.1907 31.2831L50.1921 31.2862C50.1592 31.2418 50.1261 31.1975 50.0931 31.1532C50.0716 31.1315 50.0499 31.1099 50.0284 31.0883C49.9305 30.9588 49.8327 30.8294 49.7349 30.6999C49.1696 30.078 48.605 29.4555 48.0367 28.8363C48.0135 28.8111 47.9548 28.8183 47.9127 28.8103L47.9155 28.8132C47.6762 28.5521 47.4368 28.2911 47.1975 28.03L47.1998 28.0322C47.1772 28.0098 47.1547 27.9873 47.1322 27.9648L47.1349 27.9677C46.8957 27.7066 46.6565 27.4456 46.4172 27.1845L46.4192 27.1864C46.3967 27.1641 46.3743 27.1417 46.3519 27.1193L46.3544 27.122C46.2762 26.8559 46.1266 26.6604 45.8395 26.6007C45.772 26.5107 45.7045 26.4207 45.6369 26.3309C45.579 26.2261 45.539 26.105 45.4604 26.0194C44.7657 25.2641 44.066 24.5135 43.364 23.7652C43.1219 23.5071 42.8688 23.2593 42.6208 23.0068C42.625 22.9875 42.6174 22.9757 42.5981 22.9713C42.5936 22.9558 42.5837 22.9455 42.5682 22.9406C42.5647 22.9198 42.5526 22.9074 42.5319 22.9036L42.5163 22.8944C41.9309 22.2835 41.3454 21.6726 40.7601 21.0617C40.1078 20.2412 39.8785 20.0345 39.5824 20.0812C39.9483 20.4783 40.2857 20.8444 40.623 21.2105C40.8154 21.4093 41.0103 21.6056 41.1996 21.8072C41.7029 22.3433 42.2037 22.8818 42.7055 23.4194L42.704 23.4165C42.7269 23.45 42.7497 23.4837 42.7725 23.5173C43.1411 23.9243 43.5096 24.3312 43.878 24.7381C44.3126 25.1984 44.7447 25.6612 45.1846 26.1166C45.2524 26.1868 45.3559 26.2226 45.443 26.2742L45.4449 26.2741C45.4848 26.3674 45.5032 26.4806 45.5681 26.551C46.7253 27.8083 47.8892 29.0596 49.0491 30.3143C49.3142 30.6011 49.5701 30.8962 49.861 31.222C48.8767 31.222 47.9565 31.2239 47.0364 31.2199C46.9093 31.2193 46.7824 31.19 46.6554 31.1739C46.8374 31.1598 47.0197 31.1457 47.2018 31.1316C47.2018 31.1173 47.2017 31.1029 47.2016 31.0886C46.6899 31.0886 46.1784 31.0885 45.6668 31.0886C42.7369 31.0889 39.8067 31.0843 36.8768 31.0966C36.5591 31.0979 36.3207 31.0303 36.1304 30.7704C36.0235 30.6242 35.8797 30.5049 35.7524 30.3735C35.1808 29.758 34.6106 29.1412 34.0371 28.5274C33.1763 27.606 32.3132 26.6867 31.451 25.7666C30.3071 24.5398 29.1642 23.312 28.0188 22.0866C27.4057 21.4305 26.7886 20.7783 26.1732 20.1244C26.1118 19.3553 25.7443 18.7614 25.135 18.3042C25.0929 18.2726 25.0516 18.2297 25.0302 18.1828C24.9398 17.9845 25.052 17.7729 25.2511 17.8165C25.9467 17.9684 26.3407 17.6305 26.6173 17.0506C26.6818 16.915 26.7805 16.7956 26.8658 16.6703C27.1037 16.3207 27.3535 15.9753 27.1591 15.4788C27.6073 15.5491 27.5999 15.2827 27.542 15.0356C27.3868 14.3738 27.2239 13.7128 27.0258 13.063C26.9641 12.8608 26.81 12.6615 26.6468 12.5203C26.2636 12.1887 25.8493 11.8931 25.4477 11.5827C26.4207 10.6046 27.3949 9.62803 28.3643 8.64649C28.4989 8.51016 28.6091 8.34991 28.7305 8.20056C28.7414 8.18848 28.7523 8.17649 28.7632 8.16459C28.7496 8.17381 28.7359 8.18303 28.7222 8.19221C28.6739 8.20015 28.6255 8.20822 28.5772 8.2162C28.5819 8.14254 28.5865 8.06888 28.5912 7.9953C29.11 7.49412 29.6379 7.00215 30.1459 6.49034C32.2141 4.40622 34.2746 2.31439 36.3456 0.232909C36.439 0.138995 36.6051 0.0720249 36.7385 0.0700394C38.6225 0.0418969 40.5068 0.019222 42.391 0.011232C44.9595 0.000326106 47.5279 0.00312587 50.0962 8.52608e-05C50.198 -0.000106576 50.2999 8.52608e-05 50.3688 8.52608e-05C45.4397 4.92379 40.5162 9.84171 35.5928 14.7597C35.6981 14.9075 35.7339 14.9736 35.7829 15.0278C36.202 15.492 36.6172 15.9598 37.0456 16.4154C38.1726 17.6142 39.3049 18.8079 40.4362 20.0025C41.5753 21.2051 42.7223 22.4001 43.8538 23.6097C45.2438 25.0953 46.6216 26.5922 48.0038 28.0851C49.1289 29.3001 50.2531 30.5159 51.3758 31.733C51.4368 31.799 51.4806 31.8807 51.5539 31.9862C51.4506 31.9931 51.3987 31.9995 51.347 31.9995C47.6408 32.0001 43.9346 32.0006 40.2283 31.998C40.1355 31.9979 40.0429 31.9641 39.9501 31.9459Z" fill="white"/>
<path fill-rule="evenodd" clip-rule="evenodd" d="M6.34971 15.9996C6.02322 16.1659 5.7016 16.3431 5.36828 16.4945C5.14334 16.5968 4.90661 16.6815 4.66701 16.741C4.17668 16.8626 3.84711 16.6316 3.90054 16.122C3.95503 15.603 4.07521 15.0721 4.27309 14.5901C5.16858 12.4081 6.10186 10.2418 7.02074 8.06957C7.04063 8.02266 7.05145 7.97212 7.06651 7.92317C7.03918 7.90189 7.01175 7.8806 6.9844 7.85939C6.61109 8.27961 6.21849 8.68449 5.86791 9.12294C4.39403 10.9662 2.90192 12.7965 1.4856 14.6833C1.06221 15.2474 0.848119 15.9735 0.566301 16.6375C0.347914 17.1521 0.173439 17.6853 0.00241681 18.1481C0.00241681 17.347 -0.00487342 16.4928 0.00586944 15.6389C0.0105694 15.2719 0.0371391 14.9033 0.0852901 14.5396C0.106766 14.3773 0.181593 14.209 0.27377 14.0711C2.07858 11.3709 3.90294 8.68364 5.68923 5.97125C6.11672 5.32207 6.76294 4.94781 7.30121 4.43942C7.81631 3.95303 8.43604 3.6816 9.10507 3.46383C11.6248 2.6441 14.1346 1.79359 16.6483 0.955118C16.7079 0.935215 16.7698 0.922112 16.8989 0.887581C16.8989 1.6705 16.8989 2.42049 16.8989 3.17044C16.9343 3.17419 16.9696 3.17794 17.005 3.18166C17.0512 2.98636 17.0875 2.78804 17.1457 2.59641C17.2774 2.16329 17.3852 1.71827 17.5671 1.30644C17.7745 0.836574 18.0291 0.582811 18.7282 0.83899C18.4956 1.2346 18.2679 1.62325 18.0385 2.01091C17.9945 2.08538 17.9308 2.1511 17.9005 2.23017C17.8707 2.30812 17.8715 2.3979 17.859 2.48251C17.9369 2.45117 18.035 2.43986 18.0894 2.38512C18.3338 2.13962 18.5616 1.87774 18.8031 1.62941C19.1678 1.25461 19.3806 1.26467 19.6736 1.70993C20.0007 2.20687 20.3155 2.714 20.6007 3.23588C21.0721 4.09882 21.5154 4.97715 22.008 5.92062C21.7292 5.87628 21.5394 5.86295 21.3593 5.81377C21.0735 5.73557 20.8212 5.79791 20.6705 6.03666C20.2509 6.70186 19.8487 7.37885 19.4653 8.06555C19.4082 8.16797 19.4482 8.37007 19.5129 8.48796C20.1529 9.65373 20.8075 10.8115 21.4572 11.972C21.4714 11.9974 21.4757 12.0285 21.4925 12.0813C20.9914 12.1249 20.5193 12.1217 20.0639 11.8969C18.6685 11.2079 17.3291 10.4462 16.2828 9.25358C15.7032 8.59296 15.2317 7.88356 15.2687 6.97263C15.2835 6.61025 15.4579 6.25478 15.5549 5.8949C15.5796 5.80365 15.5863 5.70767 15.6011 5.61387C15.519 5.66621 15.4148 5.70123 15.3582 5.77356C14.6471 6.68353 14.6309 7.70335 14.9014 8.76515C14.9276 8.86799 14.9595 8.96938 15.0174 9.17137C14.6769 9.12857 14.3795 9.12533 14.1015 9.05023C13.1274 8.78663 12.3503 8.1697 11.5566 7.58565C11.4098 7.47762 11.2554 7.3799 11.1045 7.27757C11.0916 7.26403 11.079 7.25051 11.0662 7.23699C11.0724 7.25721 11.0786 7.27745 11.0847 7.29771C11.5921 7.87127 12.0859 8.45775 12.611 9.01483C13.1415 9.57777 13.7749 9.98275 14.5755 10.0755C14.5864 10.1031 14.5973 10.1307 14.6082 10.1584C14.2416 10.4862 13.9205 10.9064 13.4955 11.1158C13.0728 11.3241 12.5458 11.3206 12.0402 11.4144C12.3013 11.4811 12.5594 11.5511 12.8194 11.612C13.0823 11.6736 13.3458 11.7363 13.6121 11.7796C13.8876 11.8243 14.1668 11.8462 14.5002 11.8845C14.4245 12.3182 14.3586 12.7504 14.2721 13.1783C14.1694 13.6867 14.0244 14.1876 13.9426 14.6989C13.8482 15.2884 13.5319 15.7334 13.129 16.14C12.4195 16.8561 11.7111 17.5732 11.0049 18.2925C10.9153 18.3838 10.8421 18.4911 10.7615 18.591C10.7477 18.6049 10.7338 18.6188 10.7199 18.6327C10.7433 18.6281 10.7666 18.6237 10.79 18.6193C10.983 18.524 11.1707 18.4147 11.3705 18.337C11.6006 18.2475 11.8368 18.1548 12.0786 18.1193C12.4816 18.0601 12.7346 18.3295 12.646 18.6884C12.4906 19.3176 12.3168 19.9427 12.1776 20.5754C12.1089 20.8878 11.937 21.0579 11.6502 21.1691C10.2021 21.7305 8.69761 22.0791 7.17844 22.3747C6.9894 22.4115 6.79937 22.444 6.60592 22.5382C6.87036 22.5673 7.13644 22.6318 7.39895 22.6199C8.84695 22.5543 10.2941 22.4705 11.7415 22.3918C12.0548 22.3748 12.3687 22.3336 12.6809 22.3443C12.8009 22.3484 12.9169 22.4662 13.1321 22.5868C12.3527 22.8496 11.6664 23.0811 10.9117 23.3356C11.3646 23.3154 11.7458 23.2964 12.1272 23.2826C12.246 23.2783 12.3667 23.2779 12.4843 23.2932C13.1581 23.3806 13.313 23.6824 13.0109 24.2938C12.7342 24.8533 12.3252 25.2782 11.7948 25.6109C11.245 25.9557 10.722 26.3434 10.1905 26.7172C10.1275 26.7614 10.0853 26.8354 9.99949 26.9352C10.769 27.0281 11.4866 27.0749 12.1869 27.2108C12.876 27.3446 13.5475 27.5687 14.2267 27.7532C14.2272 27.8015 14.2278 27.8498 14.2283 27.8982C13.9655 28.0208 13.7024 28.1435 13.4395 28.266C13.4417 28.2998 13.4439 28.3336 13.4462 28.3673C14.0502 28.3673 14.6557 28.3387 15.2574 28.3753C15.8562 28.4116 16.4378 28.5477 16.8628 29.0319C17.0342 29.2271 17.1907 29.4357 17.3667 29.6263C17.4469 29.7131 17.5582 29.7711 17.6555 29.8422C17.6772 29.738 17.699 29.6337 17.7333 29.4688C18.2481 29.5763 18.7731 29.7296 19.3082 29.7853C19.8388 29.8405 20.3796 29.7974 21.0004 29.7974C20.3657 30.3352 19.6733 30.3701 19.0145 30.5024C17.599 30.7867 16.1681 30.909 14.7249 30.9051C12.5032 30.8993 10.2813 30.8976 8.05945 30.8938C7.19419 30.8924 6.32668 30.9258 5.46439 30.874C4.9563 30.8435 4.45072 30.697 3.95644 30.5583C3.82275 30.5207 3.66179 30.3283 3.64885 30.1939C3.63879 30.09 3.82101 29.8998 3.95109 29.8616C4.62136 29.6648 5.30238 29.5044 5.97974 29.3322C6.01833 29.3224 6.05851 29.3192 6.15194 29.3045C5.92058 29.1472 5.72172 29.0264 5.53862 28.8851C4.80266 28.3173 4.57916 27.5358 4.98796 26.698C5.2176 26.2276 5.56777 25.8166 5.85718 25.3745C5.90244 25.3052 5.9128 25.2131 5.93928 25.1315C5.8565 25.1578 5.76585 25.1704 5.69208 25.2126C5.2999 25.4367 4.92896 25.7073 4.51785 25.8865C4.11061 26.064 3.85478 25.8956 3.74179 25.4713C3.71685 25.3776 3.68827 25.2813 3.68605 25.1858C3.63735 23.0652 3.7719 20.9656 4.4722 18.9409C4.83774 17.8841 5.3605 16.9198 6.2369 16.1849C6.28938 16.1409 6.31374 16.0633 6.35116 16.0012C6.37965 15.9928 6.40811 15.9843 6.43661 15.9758C6.43088 15.9672 6.42519 15.9586 6.41945 15.9499C6.39623 15.9665 6.37302 15.983 6.34971 15.9996Z" fill="white"/>
<path fill-rule="evenodd" clip-rule="evenodd" d="M27.2744 15.2648C27.1408 14.9533 27.0071 14.642 26.8734 14.3305C26.8616 14.3306 26.8498 14.3308 26.8379 14.3309C26.8871 14.8002 26.9463 15.2689 26.9796 15.7393C26.9902 15.8895 26.9724 16.0686 26.8981 16.1931C26.6379 16.6295 26.3578 17.0553 26.0602 17.4669C25.9965 17.5551 25.8251 17.6123 25.7069 17.6067C24.7783 17.5634 23.8509 17.4683 22.9224 17.4586C22.4322 17.4534 21.941 17.5907 21.4495 17.657C20.7111 17.7564 19.9715 17.9267 19.2331 17.9231C18.5737 17.9199 17.9023 17.7668 17.2639 17.5835C17.0686 17.5273 16.9079 17.1698 16.8326 16.9197C16.7238 16.5585 16.7073 16.1696 16.6419 15.7295C16.5627 15.9519 16.5091 16.1022 16.4556 16.2524C16.4196 16.2513 16.3835 16.2501 16.3476 16.249C16.3081 16.1477 16.248 16.0492 16.2334 15.9444C16.2039 15.7307 16.2251 15.5078 16.1791 15.2989C15.9927 14.452 16.5523 13.9406 17.0421 13.4243C17.4329 13.0124 17.9749 12.8454 18.5374 12.8061C18.8929 12.7811 19.2535 12.8292 19.609 12.8042C20.8258 12.7185 22.0402 12.59 23.2581 12.5284C23.9204 12.4948 24.4587 12.197 24.9984 11.8833C25.2008 11.7657 25.3417 11.7969 25.5299 11.8973C26.5754 12.4544 27.0745 13.3588 27.2262 14.4964C27.2589 14.7409 27.3118 14.9829 27.3554 15.2259C27.3284 15.2388 27.3014 15.2518 27.2744 15.2648Z" fill="white"/>
<path fill-rule="evenodd" clip-rule="evenodd" d="M26.15 21.2685C26.1818 21.0935 26.1986 21.0011 26.2153 20.9087C26.2451 20.9083 26.2748 20.908 26.3046 20.9077C26.3046 21.2593 26.3046 21.6111 26.3043 21.9628C26.3043 21.9735 26.3021 21.9844 26.2995 21.9949C26.2236 22.3034 26.2484 22.7476 26.0517 22.8937C25.555 23.2627 24.9677 23.5349 24.3137 23.53C22.7761 23.5187 21.2386 23.4953 19.7011 23.4791C19.3437 23.4753 18.9829 23.4503 18.6294 23.4884C18.0427 23.5517 17.5176 23.3674 17.0024 23.1406C16.8844 23.0886 16.7653 22.9511 16.7248 22.8274C16.578 22.3784 16.4643 21.9186 16.2982 21.4674C16.3129 21.6968 16.3505 21.9275 16.3356 22.1548C16.3206 22.3832 16.2654 22.6187 15.9627 22.6425C15.6729 22.6652 15.5267 22.4948 15.4457 22.246C15.3388 21.9172 15.2405 21.5856 15.1305 21.2578C14.8556 20.4389 14.8535 20.4393 15.38 19.7664C15.4935 19.6215 15.6292 19.4904 15.7223 19.3338C16.1264 18.6536 16.7666 18.4844 17.494 18.4835C18.0573 18.4827 18.6206 18.478 19.1839 18.468C20.223 18.4494 21.2624 18.4379 22.3009 18.3997C22.9812 18.3748 23.6625 18.3299 24.338 18.2489C24.5975 18.2177 24.7658 18.3021 24.9561 18.4367C25.6222 18.9081 25.9238 19.5658 25.9922 20.36C26.0161 20.6381 26.0864 20.9122 26.15 21.2685Z" fill="white"/>
<path fill-rule="evenodd" clip-rule="evenodd" d="M24.847 26.3966C24.9146 26.2762 24.9592 26.1969 25.0038 26.1176C25.0277 26.1189 25.0516 26.1201 25.0755 26.1214C25.0755 26.2475 25.0882 26.3754 25.0726 26.4996C25.0456 26.7137 24.9625 26.9269 24.9704 27.138C25.0006 27.9454 24.5279 28.3503 23.8525 28.6175C23.2492 28.8561 22.6543 29.1171 22.0457 29.341C21.898 29.3955 21.7095 29.3554 21.5422 29.3369C20.8335 29.259 20.1031 29.2548 19.4236 29.068C18.6388 28.8523 17.8536 28.5497 17.1555 28.1377C16.6862 27.8607 16.5003 27.2694 16.5106 26.6851C16.5193 26.1987 16.5264 25.7113 16.5671 25.227C16.5778 25.0999 16.689 24.961 16.7898 24.8648C17.4598 24.2255 18.3061 24.1476 19.1722 24.1368C20.7856 24.1169 22.399 24.0977 24.0123 24.0687C24.3449 24.0628 24.5251 24.227 24.575 24.5258C24.6757 25.1294 24.7526 25.737 24.847 26.3966Z" fill="white"/>
<path fill-rule="evenodd" clip-rule="evenodd" d="M26.2212 7.82216C26.2156 7.8282 26.2059 7.83388 26.2055 7.84019C26.205 7.84663 26.2139 7.85354 26.2186 7.86025C26.2243 7.85419 26.234 7.84854 26.2344 7.84212C26.2348 7.83578 26.2259 7.82888 26.2212 7.82216ZM24.5855 11.4403C24.672 10.8892 24.7788 10.4357 24.7998 9.97823C24.8102 9.75405 24.7032 9.49527 24.5764 9.29951C24.1662 8.66643 23.7221 8.05525 23.2612 7.39265C23.8181 7.18862 24.3654 7.12312 24.766 6.63834C24.4058 6.63834 24.0921 6.66262 23.7835 6.63306C23.2187 6.57898 22.7891 6.35108 22.6157 5.74065C22.4811 5.2672 22.266 4.81656 22.0521 4.26687C22.6592 4.62098 23.1886 4.92303 23.7112 5.23631C24.4354 5.67042 25.1451 6.1296 25.8796 6.54511C26.2517 6.75555 26.4689 7.02682 26.4932 7.45242C26.5035 7.63366 26.5205 7.8145 26.5371 8.02992C26.4212 7.99221 26.3483 7.96855 26.2182 7.92624C26.3617 8.31421 26.4828 8.65724 26.6156 8.99574C26.7062 9.2265 26.6912 9.4218 26.5207 9.61949C26.0968 10.1111 25.7055 10.6324 25.2618 11.1047C25.1094 11.2669 24.8401 11.3194 24.5855 11.4403Z" fill="white"/>
<path fill-rule="evenodd" clip-rule="evenodd" d="M20.3916 7.92925C20.4095 7.88311 20.4303 7.79833 20.4729 7.72639C20.5773 7.5499 20.6822 7.37225 20.8037 7.20737C21.344 6.47446 21.726 6.48636 22.5463 7.07759C22.6824 7.17572 22.7886 7.3264 22.8825 7.46992C23.2967 8.10248 23.6951 8.74542 24.1129 9.37551C24.2444 9.57375 24.2429 9.72878 24.1166 9.93156C23.6092 10.7456 22.8565 11.219 21.9719 11.513C21.9101 11.5336 21.7759 11.4854 21.7458 11.4307C21.1568 10.355 20.733 9.21291 20.4054 8.03342C20.3996 8.01277 20.3995 7.99065 20.3916 7.92925Z" fill="white"/>
<path fill-rule="evenodd" clip-rule="evenodd" d="M14.9853 16.8586C14.5442 16.5731 14.6201 16.1425 14.6856 15.7292C14.8189 14.8887 14.9863 14.0534 15.1061 13.2112C15.1448 12.9388 15.273 12.7964 15.5044 12.724C15.7777 12.6386 16.058 12.5755 16.3353 12.5027C16.3448 12.5272 16.3544 12.5517 16.3639 12.5761C16.3484 12.589 16.3336 12.6124 16.3174 12.6136C15.5929 12.6684 15.2735 13.0799 15.2021 13.7835C15.126 14.5332 14.9649 15.2743 14.8861 16.024C14.8584 16.2881 14.9644 16.5664 15.0093 16.8383C15.0093 16.8384 14.9853 16.8586 14.9853 16.8586Z" fill="white"/>
<path fill-rule="evenodd" clip-rule="evenodd" d="M15.7556 18.2426C15.037 18.4168 14.635 18.9856 14.1333 19.4058C13.9719 19.541 13.9233 19.8635 13.9057 20.1062C13.8714 20.5775 13.8957 21.0529 13.8957 21.5267C13.8675 21.5271 13.8394 21.5275 13.8113 21.5279C13.797 20.9295 13.7847 20.3311 13.7678 19.7327C13.7546 19.2618 14.1671 19.1053 14.4257 18.8365C14.5296 18.7283 14.6661 18.6509 14.7665 18.5402C15.0268 18.2533 15.3352 18.1394 15.7556 18.2426Z" fill="white"/>
<path fill-rule="evenodd" clip-rule="evenodd" d="M16.1933 24.435C15.9173 24.7629 15.6633 25.1134 15.3582 25.4116C15.1213 25.6431 15.0926 25.8875 15.1534 26.1745C15.1991 26.39 15.2542 26.6035 15.2619 26.8258C15.1525 26.356 14.7203 25.8624 15.0494 25.4198C15.3401 25.0288 15.5883 24.4952 16.1414 24.357C16.1587 24.383 16.176 24.409 16.1933 24.435Z" fill="white"/>
</svg>
